# xmcd CD database file
#
# Track frame offsets:
#	150
#	15967
#	30881
#	43997
#	64752
#	82177
#	99703
#	117134
#	132928
#	149826
#	170723
#
# Disc length: 2709 seconds
#
# Revision: 0
# Processed by: cddbd v1.5.2PL0 Copyright (c) Steve Scherf et al.
# Submitted via: CDex 1.51
#
DISCID=980a930b
DTITLE=Bryan Frasher - Bryan Frasher
DYEAR=2001
DGENRE=Country
TTITLE0=Drive On
TTITLE1=Dylight's Fading
TTITLE2=Tailor Made
TTITLE3=Love Is A Dangerous Thing
TTITLE4=Winner Takes Nothing
TTITLE5=Closer To Heaven
TTITLE6=A Better Time
TTITLE7=Forever Told Me So
TTITLE8=I'm A Broken Heart
TTITLE9=Necessary Love
TTITLE10=Celia
EXTD=YEAR: 2001
EXTT0=
EXTT1=
EXTT2=
EXTT3=
EXTT4=
EXTT5=
EXTT6=
EXTT7=
EXTT8=
EXTT9=
EXTT10=
PLAYORDER=
